# Blender v2.79 (sub 0) OBJ File: ''
# www.blender.org
mtllib tier2tower_model.mtl
o Cube.002_Cube.005
v -0.800000 1.800000 0.800000
v -0.800000 2.300000 0.800000
v -0.800000 1.800000 -0.800000
v -0.800000 2.300000 -0.800000
v 0.800000 1.800000 0.800000
v 0.800000 2.300000 0.800000
v 0.800000 1.800000 -0.800000
v 0.800000 2.300000 -0.800000
vn -1.0000 0.0000 0.0000
vn 0.0000 0.0000 -1.0000
vn 1.0000 0.0000 0.0000
vn 0.0000 0.0000 1.0000
vn 0.0000 -1.0000 0.0000
vn 0.0000 1.0000 0.0000
usemtl None
s off
f 1//1 2//1 4//1 3//1
f 3//2 4//2 8//2 7//2
f 7//3 8//3 6//3 5//3
f 5//4 6//4 2//4 1//4
f 3//5 7//5 5//5 1//5
f 8//6 4//6 2//6 6//6
o Cone
v 0.000000 2.300000 0.700000
v 0.000000 0.300000 -0.000000
v 0.136563 2.300000 0.686550
v 0.267878 2.300000 0.646716
v 0.388899 2.300000 0.582029
v 0.494975 2.300000 0.494975
v 0.582029 2.300000 0.388899
v 0.646716 2.300000 0.267878
v 0.686550 2.300000 0.136563
v 0.700000 2.300000 0.000000
v 0.686550 2.300000 -0.136563
v 0.646716 2.300000 -0.267878
v 0.582029 2.300000 -0.388899
v 0.494975 2.300000 -0.494975
v 0.388899 2.300000 -0.582029
v 0.267878 2.300000 -0.646716
v 0.136563 2.300000 -0.686550
v -0.000000 2.300000 -0.700000
v -0.136564 2.300000 -0.686550
v -0.267879 2.300000 -0.646715
v -0.388900 2.300000 -0.582028
v -0.494975 2.300000 -0.494974
v -0.582029 2.300000 -0.388899
v -0.646716 2.300000 -0.267878
v -0.686550 2.300000 -0.136563
v -0.700000 2.300000 0.000001
v -0.686550 2.300000 0.136564
v -0.646715 2.300000 0.267879
v -0.582028 2.300000 0.388900
v -0.494974 2.300000 0.494975
v -0.388898 2.300000 0.582029
v -0.267877 2.300000 0.646716
v -0.136562 2.300000 0.686550
vn 0.0926 -0.3289 0.9398
vn 0.2741 -0.3289 0.9037
vn 0.4452 -0.3289 0.8328
vn 0.5991 -0.3289 0.7300
vn 0.7300 -0.3289 0.5991
vn 0.8328 -0.3289 0.4452
vn 0.9037 -0.3289 0.2741
vn 0.9398 -0.3289 0.0926
vn 0.9398 -0.3289 -0.0926
vn 0.9037 -0.3289 -0.2741
vn 0.8328 -0.3289 -0.4452
vn 0.7300 -0.3289 -0.5991
vn 0.5991 -0.3289 -0.7300
vn 0.4452 -0.3289 -0.8328
vn 0.2741 -0.3289 -0.9037
vn 0.0926 -0.3289 -0.9398
vn -0.0926 -0.3289 -0.9398
vn -0.2741 -0.3289 -0.9037
vn -0.4452 -0.3289 -0.8328
vn -0.5991 -0.3289 -0.7300
vn -0.7300 -0.3289 -0.5991
vn -0.8328 -0.3289 -0.4452
vn -0.9037 -0.3289 -0.2741
vn -0.9398 -0.3289 -0.0926
vn -0.9398 -0.3289 0.0926
vn -0.9037 -0.3289 0.2741
vn -0.8328 -0.3289 0.4452
vn -0.7300 -0.3289 0.5991
vn -0.5991 -0.3289 0.7300
vn -0.4452 -0.3289 0.8328
vn -0.2741 -0.3289 0.9037
vn -0.0926 -0.3289 0.9398
vn 0.0000 1.0000 0.0000
usemtl None
s off
f 9//7 10//7 11//7
f 11//8 10//8 12//8
f 12//9 10//9 13//9
f 13//10 10//10 14//10
f 14//11 10//11 15//11
f 15//12 10//12 16//12
f 16//13 10//13 17//13
f 17//14 10//14 18//14
f 18//15 10//15 19//15
f 19//16 10//16 20//16
f 20//17 10//17 21//17
f 21//18 10//18 22//18
f 22//19 10//19 23//19
f 23//20 10//20 24//20
f 24//21 10//21 25//21
f 25//22 10//22 26//22
f 26//23 10//23 27//23
f 27//24 10//24 28//24
f 28//25 10//25 29//25
f 29//26 10//26 30//26
f 30//27 10//27 31//27
f 31//28 10//28 32//28
f 32//29 10//29 33//29
f 33//30 10//30 34//30
f 34//31 10//31 35//31
f 35//32 10//32 36//32
f 36//33 10//33 37//33
f 37//34 10//34 38//34
f 38//35 10//35 39//35
f 39//36 10//36 40//36
f 40//37 10//37 41//37
f 41//38 10//38 9//38
f 9//39 11//39 12//39 13//39 14//39 15//39 16//39 17//39 18//39 19//39 20//39 21//39 22//39 23//39 24//39 25//39 26//39 27//39 28//39 29//39 30//39 31//39 32//39 33//39 34//39 35//39 36//39 37//39 38//39 39//39 40//39 41//39
o Cube.001_Cube.004
v -0.800000 0.100000 0.800000
v -0.800000 0.300000 0.800000
v -0.800000 0.100000 -0.800000
v -0.800000 0.300000 -0.800000
v 0.800000 0.100000 0.800000
v 0.800000 0.300000 0.800000
v 0.800000 0.100000 -0.800000
v 0.800000 0.300000 -0.800000
vn -1.0000 0.0000 0.0000
vn 0.0000 0.0000 -1.0000
vn 1.0000 0.0000 0.0000
vn 0.0000 0.0000 1.0000
vn 0.0000 -1.0000 0.0000
vn 0.0000 1.0000 0.0000
usemtl None
s off
f 42//40 43//40 45//40 44//40
f 44//41 45//41 49//41 48//41
f 48//42 49//42 47//42 46//42
f 46//43 47//43 43//43 42//43
f 44//44 48//44 46//44 42//44
f 49//45 45//45 43//45 47//45
o Cube_Cube.003
v -1.000000 -0.100000 1.000000
v -1.000000 0.100000 1.000000
v -1.000000 -0.100000 -1.000000
v -1.000000 0.100000 -1.000000
v 1.000000 -0.100000 1.000000
v 1.000000 0.100000 1.000000
v 1.000000 -0.100000 -1.000000
v 1.000000 0.100000 -1.000000
vn -1.0000 0.0000 0.0000
vn 0.0000 0.0000 -1.0000
vn 1.0000 0.0000 0.0000
vn 0.0000 0.0000 1.0000
vn 0.0000 -1.0000 0.0000
vn 0.0000 1.0000 0.0000
usemtl None
s off
f 50//46 51//46 53//46 52//46
f 52//47 53//47 57//47 56//47
f 56//48 57//48 55//48 54//48
f 54//49 55//49 51//49 50//49
f 52//50 56//50 54//50 50//50
f 57//51 53//51 51//51 55//51
o Cone.001
v 0.000000 0.100000 -0.700000
v 0.000000 2.100000 0.000000
v 0.136563 0.100000 -0.686550
v 0.267878 0.100000 -0.646716
v 0.388899 0.100000 -0.582029
v 0.494975 0.100000 -0.494975
v 0.582029 0.100000 -0.388899
v 0.646716 0.100000 -0.267878
v 0.686550 0.100000 -0.136563
v 0.700000 0.100000 -0.000000
v 0.686550 0.100000 0.136563
v 0.646716 0.100000 0.267878
v 0.582029 0.100000 0.388899
v 0.494975 0.100000 0.494975
v 0.388899 0.100000 0.582029
v 0.267878 0.100000 0.646716
v 0.136563 0.100000 0.686550
v -0.000000 0.100000 0.700000
v -0.136564 0.100000 0.686550
v -0.267879 0.100000 0.646716
v -0.388900 0.100000 0.582029
v -0.494975 0.100000 0.494974
v -0.582029 0.100000 0.388899
v -0.646716 0.100000 0.267878
v -0.686550 0.100000 0.136563
v -0.700000 0.100000 -0.000001
v -0.686550 0.100000 -0.136564
v -0.646715 0.100000 -0.267879
v -0.582028 0.100000 -0.388900
v -0.494974 0.100000 -0.494975
v -0.388898 0.100000 -0.582029
v -0.267877 0.100000 -0.646716
v -0.136562 0.100000 -0.686550
vn 0.0926 0.3289 -0.9398
vn 0.2741 0.3289 -0.9037
vn 0.4452 0.3289 -0.8328
vn 0.5991 0.3289 -0.7300
vn 0.7300 0.3289 -0.5991
vn 0.8328 0.3289 -0.4452
vn 0.9037 0.3289 -0.2741
vn 0.9398 0.3289 -0.0926
vn 0.9398 0.3289 0.0926
vn 0.9037 0.3289 0.2741
vn 0.8328 0.3289 0.4452
vn 0.7300 0.3289 0.5991
vn 0.5991 0.3289 0.7300
vn 0.4452 0.3289 0.8328
vn 0.2741 0.3289 0.9037
vn 0.0926 0.3289 0.9398
vn -0.0926 0.3289 0.9398
vn -0.2741 0.3289 0.9037
vn -0.4452 0.3289 0.8328
vn -0.5991 0.3289 0.7300
vn -0.7300 0.3289 0.5991
vn -0.8328 0.3289 0.4452
vn -0.9037 0.3289 0.2741
vn -0.9398 0.3289 0.0926
vn -0.9398 0.3289 -0.0926
vn -0.9037 0.3289 -0.2741
vn -0.8328 0.3289 -0.4452
vn -0.7300 0.3289 -0.5991
vn -0.5991 0.3289 -0.7300
vn -0.4452 0.3289 -0.8328
vn -0.2741 0.3289 -0.9037
vn -0.0926 0.3289 -0.9398
vn 0.0000 -1.0000 0.0000
usemtl None
s off
f 58//52 59//52 60//52
f 60//53 59//53 61//53
f 61//54 59//54 62//54
f 62//55 59//55 63//55
f 63//56 59//56 64//56
f 64//57 59//57 65//57
f 65//58 59//58 66//58
f 66//59 59//59 67//59
f 67//60 59//60 68//60
f 68//61 59//61 69//61
f 69//62 59//62 70//62
f 70//63 59//63 71//63
f 71//64 59//64 72//64
f 72//65 59//65 73//65
f 73//66 59//66 74//66
f 74//67 59//67 75//67
f 75//68 59//68 76//68
f 76//69 59//69 77//69
f 77//70 59//70 78//70
f 78//71 59//71 79//71
f 79//72 59//72 80//72
f 80//73 59//73 81//73
f 81//74 59//74 82//74
f 82//75 59//75 83//75
f 83//76 59//76 84//76
f 84//77 59//77 85//77
f 85//78 59//78 86//78
f 86//79 59//79 87//79
f 87//80 59//80 88//80
f 88//81 59//81 89//81
f 89//82 59//82 90//82
f 90//83 59//83 58//83
f 58//84 60//84 61//84 62//84 63//84 64//84 65//84 66//84 67//84 68//84 69//84 70//84 71//84 72//84 73//84 74//84 75//84 76//84 77//84 78//84 79//84 80//84 81//84 82//84 83//84 84//84 85//84 86//84 87//84 88//84 89//84 90//84
