# This file uses centimeters as units for non-parametric coordinates.

mtllib TowerTier2.mtl
g default
v 0.665740 0.100000 -0.216312
v 0.566312 0.100000 -0.411450
v 0.411450 0.100000 -0.566312
v 0.216312 0.100000 -0.665740
v 0.000000 0.100000 -0.700000
v -0.216312 0.100000 -0.665740
v -0.411450 0.100000 -0.566312
v -0.566312 0.100000 -0.411450
v -0.665740 0.100000 -0.216312
v -0.700000 0.100000 0.000000
v -0.665740 0.100000 0.216312
v -0.566312 0.100000 0.411450
v -0.411450 0.100000 0.566312
v -0.216312 0.100000 0.665740
v -0.000000 0.100000 0.700000
v 0.216312 0.100000 0.665740
v 0.411450 0.100000 0.566312
v 0.566312 0.100000 0.411450
v 0.665740 0.100000 0.216312
v 0.700000 0.100000 0.000000
v 0.000000 2.100000 0.000000
vt 0.737764 0.172746
vt 0.702254 0.103054
vt 0.646946 0.047746
vt 0.577254 0.012236
vt 0.500000 -0.000000
vt 0.422746 0.012236
vt 0.353054 0.047746
vt 0.297746 0.103054
vt 0.262236 0.172746
vt 0.250000 0.250000
vt 0.262236 0.327254
vt 0.297746 0.396946
vt 0.353054 0.452254
vt 0.422746 0.487764
vt 0.500000 0.500000
vt 0.577254 0.487764
vt 0.646946 0.452254
vt 0.702254 0.396946
vt 0.737764 0.327254
vt 0.750000 0.250000
vt 0.250000 0.500000
vt 0.275000 0.500000
vt 0.300000 0.500000
vt 0.325000 0.500000
vt 0.350000 0.500000
vt 0.375000 0.500000
vt 0.400000 0.500000
vt 0.425000 0.500000
vt 0.450000 0.500000
vt 0.475000 0.500000
vt 0.500000 0.500000
vt 0.525000 0.500000
vt 0.550000 0.500000
vt 0.575000 0.500000
vt 0.600000 0.500000
vt 0.625000 0.500000
vt 0.650000 0.500000
vt 0.675000 0.500000
vt 0.700000 0.500000
vt 0.725000 0.500000
vt 0.750000 0.500000
vt 0.500000 1.000000
vn 0.000000 -1.000000 -0.000000
vn 0.000000 -1.000000 -0.000000
vn 0.000000 -1.000000 -0.000000
vn 0.000000 -1.000000 -0.000000
vn 0.000000 -1.000000 -0.000000
vn 0.000000 -1.000000 -0.000000
vn 0.000000 -1.000000 -0.000000
vn 0.000000 -1.000000 -0.000000
vn 0.000000 -1.000000 -0.000000
vn 0.000000 -1.000000 -0.000000
vn 0.000000 -1.000000 -0.000000
vn 0.000000 -1.000000 -0.000000
vn 0.000000 -1.000000 -0.000000
vn 0.000000 -1.000000 -0.000000
vn 0.000000 -1.000000 -0.000000
vn 0.000000 -1.000000 -0.000000
vn 0.000000 -1.000000 -0.000000
vn 0.000000 -1.000000 -0.000000
vn 0.000000 -1.000000 -0.000000
vn 0.000000 -1.000000 -0.000000
vn 0.897663 0.330351 -0.291667
vn 0.763597 0.330351 -0.554786
vn -0.000000 1.000000 -0.000001
vn 0.554786 0.330351 -0.763597
vn 0.291668 0.330351 -0.897663
vn -0.000000 0.330351 -0.943858
vn -0.291668 0.330351 -0.897663
vn -0.554786 0.330350 -0.763597
vn -0.763598 0.330350 -0.554786
vn -0.897663 0.330350 -0.291668
vn -0.943858 0.330350 0.000000
vn -0.897663 0.330350 0.291668
vn -0.763597 0.330350 0.554786
vn -0.554786 0.330350 0.763597
vn -0.291668 0.330350 0.897663
vn 0.000000 0.330350 0.943858
vn 0.291668 0.330350 0.897663
vn 0.554786 0.330350 0.763597
vn 0.763597 0.330350 0.554786
vn 0.897663 0.330350 0.291668
vn 0.943858 0.330350 0.000001
s off
g pCone1
usemtl lambert3SG
f 1/1/1 20/20/2 19/19/3 18/18/4 17/17/5 16/16/6 15/15/7 14/14/8 13/13/9 12/12/10 11/11/11 10/10/12 9/9/13 8/8/14 7/7/15 6/6/16 5/5/17 4/4/18 3/3/19 2/2/20
s 1
f 1/21/21 2/22/22 21/42/23
f 2/22/22 3/23/24 21/42/23
f 3/23/24 4/24/25 21/42/23
f 4/24/25 5/25/26 21/42/23
f 5/25/26 6/26/27 21/42/23
f 6/26/27 7/27/28 21/42/23
f 7/27/28 8/28/29 21/42/23
f 8/28/29 9/29/30 21/42/23
f 9/29/30 10/30/31 21/42/23
f 10/30/31 11/31/32 21/42/23
f 11/31/32 12/32/33 21/42/23
f 12/32/33 13/33/34 21/42/23
f 13/33/34 14/34/35 21/42/23
f 14/34/35 15/35/36 21/42/23
f 15/35/36 16/36/37 21/42/23
f 16/36/37 17/37/38 21/42/23
f 17/37/38 18/38/39 21/42/23
f 18/38/39 19/39/40 21/42/23
f 19/39/40 20/40/41 21/42/23
f 20/40/41 1/41/21 21/42/23
g default
v 0.665740 2.100000 0.216312
v 0.566312 2.100000 0.411450
v 0.411450 2.100000 0.566312
v 0.216312 2.100000 0.665740
v 0.000000 2.100000 0.700000
v -0.216312 2.100000 0.665740
v -0.411450 2.100000 0.566312
v -0.566312 2.100000 0.411450
v -0.665740 2.100000 0.216312
v -0.700000 2.100000 -0.000000
v -0.665740 2.100000 -0.216312
v -0.566312 2.100000 -0.411450
v -0.411450 2.100000 -0.566312
v -0.216312 2.100000 -0.665740
v -0.000000 2.100000 -0.700000
v 0.216312 2.100000 -0.665740
v 0.411450 2.100000 -0.566312
v 0.566312 2.100000 -0.411450
v 0.665740 2.100000 -0.216312
v 0.700000 2.100000 -0.000000
v 0.000000 0.100000 0.000000
vt 0.737764 0.172746
vt 0.702254 0.103054
vt 0.646946 0.047746
vt 0.577254 0.012236
vt 0.500000 -0.000000
vt 0.422746 0.012236
vt 0.353054 0.047746
vt 0.297746 0.103054
vt 0.262236 0.172746
vt 0.250000 0.250000
vt 0.262236 0.327254
vt 0.297746 0.396946
vt 0.353054 0.452254
vt 0.422746 0.487764
vt 0.500000 0.500000
vt 0.577254 0.487764
vt 0.646946 0.452254
vt 0.702254 0.396946
vt 0.737764 0.327254
vt 0.750000 0.250000
vt 0.250000 0.500000
vt 0.275000 0.500000
vt 0.300000 0.500000
vt 0.325000 0.500000
vt 0.350000 0.500000
vt 0.375000 0.500000
vt 0.400000 0.500000
vt 0.425000 0.500000
vt 0.450000 0.500000
vt 0.475000 0.500000
vt 0.500000 0.500000
vt 0.525000 0.500000
vt 0.550000 0.500000
vt 0.575000 0.500000
vt 0.600000 0.500000
vt 0.625000 0.500000
vt 0.650000 0.500000
vt 0.675000 0.500000
vt 0.700000 0.500000
vt 0.725000 0.500000
vt 0.750000 0.500000
vt 0.500000 1.000000
vn 0.000000 1.000000 0.000000
vn 0.000000 1.000000 0.000000
vn 0.000000 1.000000 0.000000
vn 0.000000 1.000000 0.000000
vn 0.000000 1.000000 0.000000
vn 0.000000 1.000000 0.000000
vn 0.000000 1.000000 0.000000
vn 0.000000 1.000000 0.000000
vn 0.000000 1.000000 0.000000
vn 0.000000 1.000000 0.000000
vn 0.000000 1.000000 0.000000
vn 0.000000 1.000000 0.000000
vn 0.000000 1.000000 0.000000
vn 0.000000 1.000000 0.000000
vn 0.000000 1.000000 0.000000
vn 0.000000 1.000000 0.000000
vn 0.000000 1.000000 0.000000
vn 0.000000 1.000000 0.000000
vn 0.000000 1.000000 0.000000
vn 0.000000 1.000000 0.000000
vn 0.897663 -0.330351 0.291667
vn 0.763597 -0.330351 0.554786
vn -0.000000 -1.000000 0.000001
vn 0.554786 -0.330351 0.763597
vn 0.291668 -0.330351 0.897663
vn -0.000000 -0.330351 0.943858
vn -0.291668 -0.330351 0.897663
vn -0.554786 -0.330350 0.763597
vn -0.763598 -0.330350 0.554786
vn -0.897663 -0.330350 0.291668
vn -0.943858 -0.330350 0.000000
vn -0.897663 -0.330350 -0.291668
vn -0.763597 -0.330350 -0.554786
vn -0.554786 -0.330350 -0.763597
vn -0.291668 -0.330350 -0.897663
vn 0.000000 -0.330350 -0.943858
vn 0.291668 -0.330350 -0.897663
vn 0.554786 -0.330350 -0.763597
vn 0.763597 -0.330350 -0.554786
vn 0.897663 -0.330350 -0.291668
vn 0.943858 -0.330350 -0.000001
s off
g pCone2
usemtl lambert3SG
f 22/43/42 41/62/43 40/61/44 39/60/45 38/59/46 37/58/47 36/57/48 35/56/49 34/55/50 33/54/51 32/53/52 31/52/53 30/51/54 29/50/55 28/49/56 27/48/57 26/47/58 25/46/59 24/45/60 23/44/61
s 1
f 22/63/62 23/64/63 42/84/64
f 23/64/63 24/65/65 42/84/64
f 24/65/65 25/66/66 42/84/64
f 25/66/66 26/67/67 42/84/64
f 26/67/67 27/68/68 42/84/64
f 27/68/68 28/69/69 42/84/64
f 28/69/69 29/70/70 42/84/64
f 29/70/70 30/71/71 42/84/64
f 30/71/71 31/72/72 42/84/64
f 31/72/72 32/73/73 42/84/64
f 32/73/73 33/74/74 42/84/64
f 33/74/74 34/75/75 42/84/64
f 34/75/75 35/76/76 42/84/64
f 35/76/76 36/77/77 42/84/64
f 36/77/77 37/78/78 42/84/64
f 37/78/78 38/79/79 42/84/64
f 38/79/79 39/80/80 42/84/64
f 39/80/80 40/81/81 42/84/64
f 40/81/81 41/82/82 42/84/64
f 41/82/82 22/83/62 42/84/64
g default
v -0.900000 1.800000 0.900000
v 0.900000 1.800000 0.900000
v -0.900000 2.300000 0.900000
v 0.900000 2.300000 0.900000
v -0.900000 2.300000 -0.900000
v 0.900000 2.300000 -0.900000
v -0.900000 1.800000 -0.900000
v 0.900000 1.800000 -0.900000
vt 0.001890 0.001992
vt 0.331370 0.001992
vt 0.331370 0.331472
vt 0.001890 0.331472
vt 0.338705 0.001992
vt 0.668185 0.001992
vt 0.668185 0.331472
vt 0.338705 0.331472
vt 0.617659 0.664740
vt 0.617659 0.335260
vt 0.947139 0.335260
vt 0.947139 0.664740
vt 0.282356 0.335260
vt 0.611836 0.335260
vt 0.611836 0.664740
vt 0.282356 0.664740
vt 0.001891 0.668528
vt 0.331370 0.668528
vt 0.331370 0.998008
vt 0.001891 0.998008
vt 0.338705 0.668528
vt 0.668185 0.668528
vt 0.668185 0.998008
vt 0.338705 0.998008
vn 0.000000 0.000000 1.000000
vn 0.000000 0.000000 1.000000
vn 0.000000 0.000000 1.000000
vn 0.000000 0.000000 1.000000
vn 0.000000 1.000000 0.000000
vn 0.000000 1.000000 0.000000
vn 0.000000 1.000000 0.000000
vn 0.000000 1.000000 0.000000
vn 0.000000 0.000000 -1.000000
vn 0.000000 0.000000 -1.000000
vn 0.000000 0.000000 -1.000000
vn 0.000000 0.000000 -1.000000
vn 0.000000 -1.000000 0.000000
vn 0.000000 -1.000000 0.000000
vn 0.000000 -1.000000 0.000000
vn 0.000000 -1.000000 0.000000
vn 1.000000 0.000000 0.000000
vn 1.000000 0.000000 0.000000
vn 1.000000 0.000000 0.000000
vn 1.000000 0.000000 0.000000
vn -1.000000 0.000000 0.000000
vn -1.000000 0.000000 0.000000
vn -1.000000 0.000000 0.000000
vn -1.000000 0.000000 0.000000
s off
g polySurface2 pCube5
usemtl lambert3SG
f 43/85/83 44/86/84 46/87/85 45/88/86
f 45/89/87 46/90/88 48/91/89 47/92/90
f 47/93/91 48/94/92 50/95/93 49/96/94
f 49/97/95 50/98/96 44/99/97 43/100/98
f 44/101/99 50/102/100 48/103/101 46/104/102
f 49/105/103 43/106/104 45/107/105 47/108/106
g default
v -0.800000 0.100000 0.800000
v 0.800000 0.100000 0.800000
v -0.800000 0.300000 0.800000
v 0.800000 0.300000 0.800000
v -0.800000 0.300000 -0.800000
v 0.800000 0.300000 -0.800000
v -0.800000 0.100000 -0.800000
v 0.800000 0.100000 -0.800000
vt 0.375000 0.000000
vt 0.625000 0.000000
vt 0.625000 0.250000
vt 0.375000 0.250000
vt 0.625000 0.500000
vt 0.375000 0.500000
vt 0.625000 0.750000
vt 0.375000 0.750000
vt 0.625000 1.000000
vt 0.375000 1.000000
vt 0.875000 0.000000
vt 0.875000 0.250000
vt 0.125000 0.000000
vt 0.125000 0.250000
vn 0.000000 0.000000 1.000000
vn 0.000000 0.000000 1.000000
vn 0.000000 0.000000 1.000000
vn 0.000000 0.000000 1.000000
vn 0.000000 1.000000 0.000000
vn 0.000000 1.000000 0.000000
vn 0.000000 1.000000 0.000000
vn 0.000000 1.000000 0.000000
vn 0.000000 0.000000 -1.000000
vn 0.000000 0.000000 -1.000000
vn 0.000000 0.000000 -1.000000
vn 0.000000 0.000000 -1.000000
vn 0.000000 -1.000000 0.000000
vn 0.000000 -1.000000 0.000000
vn 0.000000 -1.000000 0.000000
vn 0.000000 -1.000000 0.000000
vn 1.000000 0.000000 0.000000
vn 1.000000 0.000000 0.000000
vn 1.000000 0.000000 0.000000
vn 1.000000 0.000000 0.000000
vn -1.000000 0.000000 0.000000
vn -1.000000 0.000000 0.000000
vn -1.000000 0.000000 0.000000
vn -1.000000 0.000000 0.000000
s off
g pCube5 polySurface3
usemtl lambert3SG
f 51/109/107 52/110/108 54/111/109 53/112/110
f 53/112/111 54/111/112 56/113/113 55/114/114
f 55/114/115 56/113/116 58/115/117 57/116/118
f 57/116/119 58/115/120 52/117/121 51/118/122
f 52/110/123 58/119/124 56/120/125 54/111/126
f 57/121/127 51/109/128 53/112/129 55/122/130
g default
v -1.000000 -0.100000 1.000000
v 1.000000 -0.100000 1.000000
v -1.000000 0.100000 1.000000
v 1.000000 0.100000 1.000000
v -1.000000 0.100000 -1.000000
v 1.000000 0.100000 -1.000000
v -1.000000 -0.100000 -1.000000
v 1.000000 -0.100000 -1.000000
vt 0.375000 0.000000
vt 0.625000 0.000000
vt 0.625000 0.250000
vt 0.375000 0.250000
vt 0.625000 0.500000
vt 0.375000 0.500000
vt 0.625000 0.750000
vt 0.375000 0.750000
vt 0.625000 1.000000
vt 0.375000 1.000000
vt 0.875000 0.000000
vt 0.875000 0.250000
vt 0.125000 0.000000
vt 0.125000 0.250000
vn 0.000000 0.000000 1.000000
vn 0.000000 0.000000 1.000000
vn 0.000000 0.000000 1.000000
vn 0.000000 0.000000 1.000000
vn 0.000000 1.000000 0.000000
vn 0.000000 1.000000 0.000000
vn 0.000000 1.000000 0.000000
vn 0.000000 1.000000 0.000000
vn 0.000000 0.000000 -1.000000
vn 0.000000 0.000000 -1.000000
vn 0.000000 0.000000 -1.000000
vn 0.000000 0.000000 -1.000000
vn 0.000000 -1.000000 0.000000
vn 0.000000 -1.000000 0.000000
vn 0.000000 -1.000000 0.000000
vn 0.000000 -1.000000 0.000000
vn 1.000000 0.000000 0.000000
vn 1.000000 0.000000 0.000000
vn 1.000000 0.000000 0.000000
vn 1.000000 0.000000 0.000000
vn -1.000000 0.000000 0.000000
vn -1.000000 0.000000 0.000000
vn -1.000000 0.000000 0.000000
vn -1.000000 0.000000 0.000000
s off
g pCube5 polySurface4
usemtl lambert3SG
f 59/123/131 60/124/132 62/125/133 61/126/134
f 61/126/135 62/125/136 64/127/137 63/128/138
f 63/128/139 64/127/140 66/129/141 65/130/142
f 65/130/143 66/129/144 60/131/145 59/132/146
f 60/124/147 66/133/148 64/134/149 62/125/150
f 65/135/151 59/123/152 61/126/153 63/136/154
